<?xml version="1.0" encoding="UTF-8"?>
<svg version="1.1" xmlns="http://www.w3.org/2000/svg" viewBox="0 0 1200 1200">
<rect width="1200" height="1200" fill="white"/>
<g transform="translate(104, 140)">
<path d="M0 0 C1.65 0 3.3 0 5 0 C5 0.66 5 1.32 5 2 C259.76 2 514.52 2 777 2 C777 1.34 777 0.68 777 0 C778.98 0 780.96 0 783 0 C783 3.63 783 7.26 783 11 C782.01 11 781.02 11 780 11 C779.87625 11.7425 779.7525 12.485 779.625 13.25 C779.04513299 15.80141485 778.26291261 17.7267573 777 20 C776.01 20 775.02 20 774 20 C774 21.98 774 23.96 774 26 C772.68 26.33 771.36 26.66 770 27 C770 28.98 770 30.96 770 33 C769.01 33 768.02 33 767 33 C767 34.98 767 36.96 767 39 C766.01 39 765.02 39 764 39 C764 40.98 764 42.96 764 45 C763.01 45 762.02 45 761 45 C761 46.98 761 48.96 761 51 C759.515 51.495 759.515 51.495 758 52 C758 53.65 758 55.3 758 57 C756.515 57.495 756.515 57.495 755 58 C755 59.65 755 61.3 755 63 C753.515 63.495 753.515 63.495 752 64 C751.67 65.98 751.34 67.96 751 70 C750.01 70 749.02 70 748 70 C748 71.65 748 73.3 748 75 C746.515 75.495 746.515 75.495 745 76 C745 77.32 745 78.64 745 80 C744.01 80 743.02 80 742 80 C742 81.98 742 83.96 742 86 C741.01 86 740.02 86 739 86 C739 87.98 739 89.96 739 92 C738.01 92 737.02 92 736 92 C736 94.31 736 96.62 736 99 C735.01 99 734.02 99 733 99 C733 100.98 733 102.96 733 105 C732.01 105 731.02 105 730 105 C730 106.65 730 108.3 730 110 C728.515 110.495 728.515 110.495 727 111 C726.67 112.98 726.34 114.96 726 117 C724.515 117.495 724.515 117.495 723 118 C723 119.65 723 121.3 723 123 C721.515 123.495 721.515 123.495 720 124 C720 125.98 720 127.96 720 130 C719.01 130 718.02 130 717 130 C716.896875 130.721875 716.79375 131.44375 716.6875 132.1875 C715.93206053 135.27793421 714.84468685 137.41743841 713 140 C712.34 140 711.68 140 711 140 C711 141.98 711 143.96 711 146 C710.01 146 709.02 146 708 146 C708 147.98 708 149.96 708 152 C707.01 152 706.02 152 705 152 C705 153.65 705 155.3 705 157 C703.68 157.33 702.36 157.66 701 158 C701 160.31 701 162.62 701 165 C700.01 165 699.02 165 698 165 C698 166.98 698 168.96 698 171 C697.01 171 696.02 171 695 171 C695 172.98 695 174.96 695 177 C694.01 177 693.02 177 692 177 C692 178.98 692 180.96 692 183 C691.01 183 690.02 183 689 183 C689 184.98 689 186.96 689 189 C688.34 189.33 687.68 189.66 687 190 C685.37750912 192.43373631 684.08680112 194.7829972 683 197.5 C681.90390313 200.24024218 680.71708985 202.59607421 679 205 C678.01 205 677.02 205 676 205 C676 207.31 676 209.62 676 212 C675.01 212 674.02 212 673 212 C673 213.98 673 215.96 673 218 C672.01 218 671.02 218 670 218 C670 219.98 670 221.96 670 224 C669.01 224 668.02 224 667 224 C667 225.98 667 227.96 667 230 C666.01 230 665.02 230 664 230 C664 231.98 664 233.96 664 236 C663.01 236.33 662.02 236.66 661 237 C660.67 238.98 660.34 240.96 660 243 C659.34 243 658.68 243 658 243 C657.67 244.98 657.34 246.96 657 249 C656.01 249 655.02 249 654 249 C654 250.98 654 252.96 654 255 C653.01 255 652.02 255 651 255 C651 256.32 651 257.64 651 259 C650.01 259 649.02 259 648 259 C648 260.98 648 262.96 648 265 C647.01 265 646.02 265 645 265 C645 266.98 645 268.96 645 271 C644.01 271 643.02 271 642 271 C642 272.98 642 274.96 642 277 C641.01 277.33 640.02 277.66 639 278 C639 279.65 639 281.3 639 283 C638.01 283.33 637.02 283.66 636 284 C635.67 285.98 635.34 287.96 635 290 C634.01 290 633.02 290 632 290 C632 291.98 632 293.96 632 296 C631.01 296 630.02 296 629 296 C629 297.98 629 299.96 629 302 C628.01 302.33 627.02 302.66 626 303 C626 304.65 626 306.3 626 308 C625.01 308.33 624.02 308.66 623 309 C623 310.65 623 312.3 623 314 C622.01 314.33 621.02 314.66 620 315 C620 315.99 620 316.98 620 318 C619.01 318.495 619.01 318.495 618 319 C617.32741333 321.33163378 616.66152556 323.6652039 616 326 C614.5625 328.9375 614.5625 328.9375 613 331 C612.01 331 611.02 331 610 331 C610 332.98 610 334.96 610 337 C586.24 337 562.48 337 538 337 C538 337.99 538 338.98 538 340 C538.99 340 539.98 340 541 340 C541 341.32 541 342.64 541 344 C541.99 344 542.98 344 544 344 C544.33 345.98 544.66 347.96 545 350 C545.99 350 546.98 350 548 350 C548 350.99 548 351.98 548 353 C548.99 353.33 549.98 353.66 551 354 C551 355.65 551 357.3 551 359 C551.99 359 552.98 359 554 359 C554 359.99 554 360.98 554 362 C554.99 362.33 555.98 362.66 557 363 C557 364.98 557 366.96 557 369 C557.99 369 558.98 369 560 369 C560 369.99 560 370.98 560 372 C560.99 372 561.98 372 563 372 C563 373.98 563 375.96 563 378 C563.598125 378.061875 564.19625 378.12375 564.8125 378.1875 C567.92266847 379.34270543 568.60417708 381.06877187 570 384 C570 384.99 570 385.98 570 387 C570.99 387.33 571.98 387.66 573 388 C573.33 389.98 573.66 391.96 574 394 C574.66 394 575.32 394 576 394 C576 394.99 576 395.98 576 397 C576.99 397 577.98 397 579 397 C579 397.99 579 398.98 579 400 C579.99 400.33 580.98 400.66 582 401 C582 402.65 582 404.3 582 406 C582.99 406 583.98 406 585 406 C585 407.32 585 408.64 585 410 C585.99 410 586.98 410 588 410 C588.33 411.98 588.66 413.96 589 416 C589.99 416 590.98 416 592 416 C592 416.99 592 417.98 592 419 C592.99 419 593.98 419 595 419 C595 422.63 595 426.26 595 430 C594.01 430.33 593.02 430.66 592 431 C592 431.99 592 432.98 592 434 C591.01 434 590.02 434 589 434 C588.67 436.31 588.34 438.62 588 441 C587.01 441 586.02 441 585 441 C585 442.98 585 444.96 585 447 C584.01 447 583.02 447 582 447 C582 448.65 582 450.3 582 452 C581.01 452.33 580.02 452.66 579 453 C579 453.99 579 454.98 579 456 C578.01 456 577.02 456 576 456 C576 457.98 576 459.96 576 462 C575.01 462.33 574.02 462.66 573 463 C573 464.65 573 466.3 573 468 C572.01 468.33 571.02 468.66 570 469 C570 469.99 570 470.98 570 472 C569.01 472 568.02 472 567 472 C567 473.65 567 475.3 567 477 C565.68 477.33 564.36 477.66 563 478 C563 479.98 563 481.96 563 484 C562.01 484.33 561.02 484.66 560 485 C560 486.98 560 488.96 560 491 C559.01 491 558.02 491 557 491 C556.67 492.65 556.34 494.3 556 496 C555.34 496 554.68 496 554 496 C554 497.32 554 498.64 554 500 C553.01 500 552.02 500 551 500 C551 501.98 551 503.96 551 506 C550.01 506.495 550.01 506.495 549 507 C548.27306096 508.97888961 547.60183749 510.97954558 547 513 C546.34 513 545.68 513 545 513 C544.67 514.65 544.34 516.3 544 518 C543.01 518.33 542.02 518.66 541 519 C541 519.99 541 520.98 541 522 C540.01 522 539.02 522 538 522 C538 523.98 538 525.96 538 528 C537.01 528 536.02 528 535 528 C535 529.98 535 531.96 535 534 C534.01 534.33 533.02 534.66 532 535 C532 536.65 532 538.3 532 540 C531.01 540.33 530.02 540.66 529 541 C529 541.99 529 542.98 529 544 C528.01 544 527.02 544 526 544 C526 545.98 526 547.96 526 550 C525.01 550 524.02 550 523 550 C522.67 552.31 522.34 554.62 522 557 C515.84765625 557.09765625 515.84765625 557.09765625 514 557 C513 556 513 556 512.9375 552.9375 C512.958125 551.968125 512.97875 550.99875 513 550 C512.01 550 511.02 550 510 550 C510 548.02 510 546.04 510 544 C509.01 544 508.02 544 507 544 C507 542.02 507 540.04 507 538 C506.01 538 505.02 538 504 538 C504 536.02 504 534.04 504 532 C503.01 532 502.02 532 501 532 C501 529.69 501 527.38 501 525 C500.01 525 499.02 525 498 525 C498 524.01 498 523.02 498 522 C497.01 521.67 496.02 521.34 495 521 C494.67 519.35 494.34 517.7 494 516 C493.01 515.67 492.02 515.34 491 515 C491 513.35 491 511.7 491 510 C490.01 509.67 489.02 509.34 488 509 C488 507.02 488 505.04 488 503 C487.01 503 486.02 503 485 503 C485 501.02 485 499.04 485 497 C484.01 497 483.02 497 482 497 C482 495.02 482 493.04 482 491 C481.01 491 480.02 491 479 491 C479 489.02 479 487.04 479 485 C478.01 485 477.02 485 476 485 C475.773125 484.34 475.54625 483.68 475.3125 483 C473.86367533 479.68840076 472.03729318 476.85886906 470.0234375 473.8671875 C469 472 469 472 469 469 C468.01 468.67 467.02 468.34 466 468 C466 466.35 466 464.7 466 463 C465.01 462.67 464.02 462.34 463 462 C463 460.02 463 458.04 463 456 C462.01 456 461.02 456 460 456 C460 454.02 460 452.04 460 450 C459.01 450 458.02 450 457 450 C457 448.02 457 446.04 457 444 C456.01 444 455.02 444 454 444 C454 442.02 454 440.04 454 438 C453.01 437.67 452.02 437.34 451 437 C451 435.02 451 433.04 451 431 C449.68 431 448.36 431 447 431 C447 430.01 447 429.02 447 428 C446.01 427.67 445.02 427.34 444 427 C444 425.35 444 423.7 444 422 C443.01 421.67 442.02 421.34 441 421 C440.87625 420.195625 440.7525 419.39125 440.625 418.5625 C440.41875 417.716875 440.2125 416.87125 440 416 C439.34 415.67 438.68 415.34 438 415 C438 413.02 438 411.04 438 409 C437.01 409 436.02 409 435 409 C435 407.02 435 405.04 435 403 C434.01 403 433.02 403 432 403 C432 401.02 432 399.04 432 397 C431.01 397 430.02 397 429 397 C429 394.69 429 392.38 429 390 C427.68 390 426.36 390 425 390 C425 388.02 425 386.04 425 384 C424.01 384 423.02 384 422 384 C422 383.01 422 382.02 422 381 C421.01 380.67 420.02 380.34 419 380 C419 378.35 419 376.7 419 375 C418.01 374.67 417.02 374.34 416 374 C416 372.02 416 370.04 416 368 C415.01 368 414.02 368 413 368 C413 366.02 413 364.04 413 362 C412.01 362 411.02 362 410 362 C410 360.02 410 358.04 410 356 C409.01 356 408.02 356 407 356 C407 354.02 407 352.04 407 350 C406.01 350 405.02 350 404 350 C403.67 347.69 403.34 345.38 403 343 C402.40985107 343.01047363 401.81970215 343.02094727 401.21166992 343.03173828 C398.53698996 343.07332044 395.86237803 343.0993329 393.1875 343.125 C392.25873047 343.14175781 391.32996094 343.15851563 390.37304688 343.17578125 C389.48037109 343.18222656 388.58769531 343.18867188 387.66796875 343.1953125 C386.84578857 343.20578613 386.0236084 343.21625977 385.17651367 343.22705078 C383 343 383 343 380 341 C377.59556162 340.71013555 377.59556162 340.71013555 374.88598633 340.77294922 C373.84513382 340.77310028 372.80428131 340.77325134 371.73188782 340.77340698 C370.60993515 340.78372955 369.48798248 340.79405212 368.33203125 340.8046875 C367.18208176 340.8075174 366.03213226 340.81034729 364.84733582 340.81326294 C361.16895204 340.82447167 357.49081038 340.84957776 353.8125 340.875 C351.32096705 340.88502889 348.8294303 340.8941549 346.33789062 340.90234375 C340.22517759 340.92441327 334.11260609 340.95789776 328 341 C328 342.98 328 344.96 328 347 C328.99 347 329.98 347 331 347 C331 348.98 331 350.96 331 353 C331.99 353 332.98 353 334 353 C334 354.32 334 355.64 334 357 C334.99 357 335.98 357 337 357 C337.474375 357.969375 337.94875 358.93875 338.4375 359.9375 C339.70193947 362.80477437 339.70193947 362.80477437 341 364 C341.04063832 365.66617115 341.042721 367.33388095 341 369 C341.99 369 342.98 369 344 369 C344 370.98 344 372.96 344 375 C344.99 375 345.98 375 347 375 C347 376.98 347 378.96 347 381 C347.99 381 348.98 381 350 381 C351.4216319 384.3171411 352.39009109 387.44219804 353 391 C353.99 391 354.98 391 356 391 C356 392.98 356 394.96 356 397 C356.99 397 357.98 397 359 397 C360.30459914 399.60919828 360.1326594 401.58942615 360.125 404.5 C360.12757813 405.4796875 360.13015625 406.459375 360.1328125 407.46875 C360 410 360 410 359 412 C358.01 412 357.02 412 356 412 C356 413.32 356 414.64 356 416 C355.01 416 354.02 416 353 416 C353 417.98 353 419.96 353 422 C352.01 422 351.02 422 350 422 C350 422.99 350 423.98 350 425 C349.01 425 348.02 425 347 425 C347 426.98 347 428.96 347 431 C346.01 431 345.02 431 344 431 C344 431.99 344 432.98 344 434 C343.01 434 342.02 434 341 434 C341 435.98 341 437.96 341 440 C340.01 440.33 339.02 440.66 338 441 C337.67 441.99 337.34 442.98 337 444 C336.01 444 335.02 444 334 444 C334 445.98 334 447.96 334 450 C333.01 450 332.02 450 331 450 C331 450.99 331 451.98 331 453 C330.01 453 329.02 453 328 453 C328 454.98 328 456.96 328 459 C327.01 459 326.02 459 325 459 C324.87625 459.721875 324.7525 460.44375 324.625 461.1875 C324.0095069 463.95721894 323.11555626 466.3970354 322 469 C321.01 469 320.02 469 319 469 C319 469.99 319 470.98 319 472 C318.01 472 317.02 472 316 472 C316 473.98 316 475.96 316 478 C315.01 478.33 314.02 478.66 313 479 C312.67 479.66 312.34 480.32 312 481 C311.01 481 310.02 481 309 481 C309 483.31 309 485.62 309 488 C308.01 488 307.02 488 306 488 C305.67 489.65 305.34 491.3 305 493 C304.34 493 303.68 493 303 493 C303 494.32 303 495.64 303 497 C302.01 497 301.02 497 300 497 C300 498.65 300 500.3 300 502 C299.01 502.33 298.02 502.66 297 503 C297 503.99 297 504.98 297 506 C296.34 506.33 295.68 506.66 295 507 C294.67 507.99 294.34 508.98 294 510 C293.01 510 292.02 510 291 510 C291 511.65 291 513.3 291 515 C289.68 515.33 288.36 515.66 287 516 C287 516.99 287 517.98 287 519 C285.02 519 283.04 519 281 519 C281 518.01 281 517.02 281 516 C280.01 516 279.02 516 278 516 C278 514.02 278 512.04 278 510 C277.01 510 276.02 510 275 510 C275 508.68 275 507.36 275 506 C274.01 506 273.02 506 272 506 C272 504.02 272 502.04 272 500 C271.01 500 270.02 500 269 500 C269 498.02 269 496.04 269 494 C268.01 494 267.02 494 266 494 C265.67 492.68 265.34 491.36 265 490 C264.34 490 263.68 490 263 490 C262.566875 488.7934375 262.566875 488.7934375 262.125 487.5625 C261.26737432 484.8673532 261.26737432 484.8673532 259 484 C259 482.02 259 480.04 259 478 C258.01 478 257.02 478 256 478 C256 476.02 256 474.04 256 472 C255.01 472 254.02 472 253 472 C253 471.01 253 470.02 253 469 C252.01 469 251.02 469 250 469 C250 467.02 250 465.04 250 463 C249.01 463 248.02 463 247 463 C245.87119943 459.68885166 244.78697325 456.41021743 244 453 C242.68 452.67 241.36 452.34 240 452 C240 450.35 240 448.7 240 447 C239.01 447 238.02 447 237 447 C237 445.68 237 444.36 237 443 C236.34 443 235.68 443 235 443 C234.67 441.02 234.34 439.04 234 437 C233.01 437 232.02 437 231 437 C231 435.02 231 433.04 231 431 C230.01 431 229.02 431 228 431 C228 429.68 228 428.36 228 427 C227.34 427 226.68 427 226 427 C225.67 425.35 225.34 423.7 225 422 C224.01 422 223.02 422 222 422 C222 420.02 222 418.04 222 416 C220.68 415.67 219.36 415.34 218 415 C218 413.02 218 411.04 218 409 C217.01 409 216.02 409 215 409 C215 408.01 215 407.02 215 406 C214.01 406 213.02 406 212 406 C212 404.02 212 402.04 212 400 C211.01 400 210.02 400 209 400 C209 398.02 209 396.04 209 394 C208.01 394 207.02 394 206 394 C206 392.68 206 391.36 206 390 C205.01 390 204.02 390 203 390 C203 388.02 203 386.04 203 384 C202.01 384 201.02 384 200 384 C200 382.02 200 380.04 200 378 C198.68 377.67 197.36 377.34 196 377 C196 376.34 196 375.68 196 375 C195.34 375 194.68 375 194 375 C193.566875 373.5459375 193.566875 373.5459375 193.125 372.0625 C192.35785318 368.89335797 192.35785318 368.89335797 190 368 C190 366.02 190 364.04 190 362 C189.01 362 188.02 362 187 362 C187 361.01 187 360.02 187 359 C186.01 359 185.02 359 184 359 C184 357.02 184 355.04 184 353 C183.01 353 182.02 353 181 353 C181 351.02 181 349.04 181 347 C180.01 347 179.02 347 178 347 C178 345.68 178 344.36 178 343 C177.01 343 176.02 343 175 343 C175 341.02 175 339.04 175 337 C173.68 336.67 172.36 336.34 171 336 C171 334.35 171 332.7 171 331 C170.01 331 169.02 331 168 331 C168 330.01 168 329.02 168 328 C167.01 327.67 166.02 327.34 165 327 C165 325.02 165 323.04 165 321 C164.01 321 163.02 321 162 321 C162 319.02 162 317.04 162 315 C161.01 315 160.02 315 159 315 C159 314.01 159 313.02 159 312 C158.01 312 157.02 312 156 312 C156 310.02 156 308.04 156 306 C155.01 306 154.02 306 153 306 C153 304.02 153 302.04 153 300 C151.68 299.67 150.36 299.34 149 299 C149 298.01 149 297.02 149 296 C148.01 295.67 147.02 295.34 146 295 C146 293.35 146 291.7 146 290 C145.01 290 144.02 290 143 290 C143 288.02 143 286.04 143 284 C142.01 284 141.02 284 140 284 C139.67 283.01 139.34 282.02 139 281 C138.34 280.67 137.68 280.34 137 280 C137 278.02 137 276.04 137 274 C136.01 274 135.02 274 134 274 C134 272.02 134 270.04 134 268 C133.01 268 132.02 268 131 268 C131 267.01 131 266.02 131 265 C130.01 265 129.02 265 128 265 C127.67 263.02 127.34 261.04 127 259 C126.01 258.67 125.02 258.34 124 258 C124 256.02 124 254.04 124 252 C123.01 252 122.02 252 121 252 C121 251.01 121 250.02 121 249 C120.01 248.67 119.02 248.34 118 248 C118 246.35 118 244.7 118 243 C117.01 243 116.02 243 115 243 C115 241.02 115 239.04 115 237 C114.01 237 113.02 237 112 237 C112 235.68 112 234.36 112 233 C111.01 233 110.02 233 109 233 C109 231.02 109 229.04 109 227 C108.01 227 107.02 227 106 227 C106 226.01 106 225.02 106 224 C105.01 224 104.02 224 103 224 C103 221.03 103 218.06 103 215 C123.54881854 214.95331808 144.09762837 214.91802986 164.64648914 214.89637566 C174.18727705 214.88605484 183.72803204 214.87197914 193.26879883 214.84912109 C201.58270864 214.82921185 209.89659462 214.81628943 218.2105276 214.81182301 C222.61433307 214.80921144 227.01807036 214.80305645 231.42185402 214.78853989 C235.56434445 214.77499489 239.70673841 214.77077109 243.84924889 214.77378464 C245.37186074 214.77323309 246.89447573 214.7692373 248.41706848 214.76158905 C250.49181374 214.75167588 252.56619214 214.75401762 254.64094543 214.75949097 C256.38451686 214.75672559 256.38451686 214.75672559 258.16331196 214.75390434 C261 215 261 215 264 217 C266.27846572 217.30414213 266.27846572 217.30414213 268.85132885 217.26171303 C269.85703653 217.26917852 270.8627442 217.27664401 271.89892787 217.28433573 C273.0068915 217.282401 274.11485514 217.28046626 275.25639343 217.2784729 C277.01820764 217.2871615 277.01820764 217.2871615 278.81561404 217.29602563 C282.08112073 217.31011973 285.34650253 217.3152583 288.61203492 217.31667423 C292.13146752 217.32036195 295.65085261 217.33551424 299.17025757 217.34928894 C305.26964002 217.37158542 311.36900562 217.38658432 317.46842003 217.39665604 C326.28719184 217.41122863 335.10590499 217.43676142 343.92464242 217.46498732 C358.23172852 217.51048118 372.53882305 217.54708525 386.84594727 217.578125 C400.74570192 217.60829993 414.64543593 217.64264533 428.54516602 217.68261719 C429.40164558 217.68507874 430.25812514 217.68754028 431.14055862 217.69007643 C435.43717537 217.70245082 439.73379187 217.71490739 444.03040826 217.72740483 C479.68691052 217.83101145 515.34343682 217.92020188 551 218 C551 216.02 551 214.04 551 212 C551.99 212 552.98 212 554 212 C554 210.02 554 208.04 554 206 C554.99 206 555.98 206 557 206 C557 203.69 557 201.38 557 199 C557.99 199 558.98 199 560 199 C560 197.02 560 195.04 560 193 C560.99 193 561.98 193 563 193 C562.9071875 191.576875 562.9071875 191.576875 562.8125 190.125 C562.874375 189.09375 562.93625 188.0625 563 187 C564.485 186.01 564.485 186.01 566 185 C566.36760731 182.67182036 566.70241581 180.3381615 567 178 C567.66 177.67 568.32 177.34 569 177 C569.65772428 173.97065509 569.65772428 173.97065509 570 171 C570.99 171 571.98 171 573 171 C573 169.02 573 167.04 573 165 C573.99 165 574.98 165 576 165 C576 163.02 576 161.04 576 159 C576.99 158.67 577.98 158.34 579 158 C579 156.02 579 154.04 579 152 C579.99 152 580.98 152 582 152 C582 150.02 582 148.04 582 146 C582.99 146 583.98 146 585 146 C585.33 143.03 585.66 140.06 586 137 C586.99 137 587.98 137 589 137 C589 135.68 589 134.36 589 133 C560.74120746 133.08377911 532.48247274 133.1788674 504.22376442 133.28752708 C491.1036153 133.33771086 477.98347261 133.384153 464.86328125 133.421875 C453.43159587 133.45475175 441.99995956 133.49455883 430.56832826 133.54279006 C424.51187933 133.5680981 418.45546314 133.58986655 412.39897537 133.60334396 C406.70436861 133.61612538 401.00987388 133.63813699 395.3153286 133.66738319 C393.21985646 133.67648977 391.12436627 133.68215632 389.02887535 133.68421364 C386.17867737 133.68751453 383.32880125 133.7029324 380.47866821 133.7215271 C379.22090307 133.718625 379.22090307 133.718625 377.93772852 133.71566427 C373.49788317 133.57618627 373.49788317 133.57618627 370 136 C367.83440626 136.24839699 367.83440626 136.24839699 365.08431053 136.24609566 C364.03879316 136.25007775 362.99327578 136.25405985 361.91607606 136.25816262 C360.75850821 136.25233693 359.60094035 136.24651125 358.40829468 136.24050903 C356.57425817 136.24307231 356.57425817 136.24307231 354.70317042 136.24568737 C351.29853348 136.24842097 347.89412432 136.24213671 344.48951483 136.23213124 C340.82216733 136.22352067 337.15482729 136.2264152 333.48747253 136.22793579 C327.12995092 136.22898616 320.77247026 136.2226937 314.41495895 136.21146011 C305.22299072 136.19522865 296.03104235 136.18999953 286.83906133 136.18748413 C271.92687601 136.18310332 257.01471252 136.16978377 242.10253906 136.15087891 C227.61393341 136.13253008 213.12533367 136.1183687 198.63671875 136.10986328 C197.74413252 136.10933783 196.85154629 136.10881239 195.93191199 136.10827102 C191.45421599 136.105661 186.97651995 136.10313357 182.49882388 136.10064721 C145.33253383 136.0799027 108.16626861 136.04466669 71 136 C71 134.02 71 132.04 71 130 C70.01 130 69.02 130 68 130 C68 128.68 68 127.36 68 126 C66.515 125.505 66.515 125.505 65 125 C65 123.68 65 122.36 65 121 C63.515 120.505 63.515 120.505 62 120 C62 118.02 62 116.04 62 114 C61.01 114 60.02 114 59 114 C58.67 112.02 58.34 110.04 58 108 C57.01 108 56.02 108 55 108 C52 102.375 52 102.375 52 99 C51.01 98.67 50.02 98.34 49 98 C49 96.02 49 94.04 49 92 C48.01 92 47.02 92 46 92 C46 90.02 46 88.04 46 86 C45.01 86 44.02 86 43 86 C43 85.01 43 84.02 43 83 C42.01 82.67 41.02 82.34 40 82 C40 80.35 40 78.7 40 77 C39.01 77 38.02 77 37 77 C37 75.02 37 73.04 37 71 C35.68 70.67 34.36 70.34 33 70 C33 68.02 33 66.04 33 64 C32.01 64 31.02 64 30 64 C30 63.01 30 62.02 30 61 C28.515 60.505 28.515 60.505 27 60 C27 58.35 27 56.7 27 55 C26.01 55 25.02 55 24 55 C24 53.02 24 51.04 24 49 C23.01 49 22.02 49 21 49 C21 46.69 21 44.38 21 42 C20.01 42 19.02 42 18 42 C18 41.01 18 40.02 18 39 C17.01 39 16.02 39 15 39 C15 37.02 15 35.04 15 33 C13.68 32.67 12.36 32.34 11 32 C11 30.35 11 28.7 11 27 C10.01 26.67 9.02 26.34 8 26 C7.87625 25.195625 7.7525 24.39125 7.625 23.5625 C7.41875 22.716875 7.2125 21.87125 7 21 C6.34 20.67 5.68 20.34 5 20 C5 19.01 5 18.02 5 17 C4.01 17 3.02 17 2 17 C2 15.02 2 13.04 2 11 C1.34 11 0.68 11 0 11 C0 7.37 0 3.74 0 0 Z " fill="#ED2024" transform="translate(0,0)"/>
<path d="M0 0 C56.43 0 112.86 0 171 0 C171 3.63 171 7.26 171 11 C170.34 11 169.68 11 169 11 C169 12.65 169 14.3 169 16 C168.01 16.33 167.02 16.66 166 17 C165.67 18.98 165.34 20.96 165 23 C164.34 23 163.68 23 163 23 C162.67 24.32 162.34 25.64 162 27 C161.34 27 160.68 27 160 27 C160 28.65 160 30.3 160 32 C158.68 32.33 157.36 32.66 156 33 C156 34.98 156 36.96 156 39 C155.01 39 154.02 39 153 39 C153 40.98 153 42.96 153 45 C152.01 45 151.02 45 150 45 C149.67 46.98 149.34 48.96 149 51 C148.34 51 147.68 51 147 51 C147 52.32 147 53.64 147 55 C146.01 55 145.02 55 144 55 C144 56.98 144 58.96 144 61 C143.01 61 142.02 61 141 61 C141 62.98 141 64.96 141 67 C140.01 67 139.02 67 138 67 C137.87625 67.639375 137.7525 68.27875 137.625 68.9375 C137.41875 69.618125 137.2125 70.29875 137 71 C136.34 71.33 135.68 71.66 135 72 C134.34444881 74.52733235 134.34444881 74.52733235 134 77 C133.01 77 132.02 77 131 77 C131 78.98 131 80.96 131 83 C130.01 83 129.02 83 128 83 C128 84.98 128 86.96 128 89 C127.01 89 126.02 89 125 89 C125 90.98 125 92.96 125 95 C123.515 95.495 123.515 95.495 122 96 C121.67 97.65 121.34 99.3 121 101 C120.34 101 119.68 101 119 101 C119 102.32 119 103.64 119 105 C118.01 105 117.02 105 116 105 C116 106.98 116 108.96 116 111 C115.01 111 114.02 111 113 111 C112.67 112.98 112.34 114.96 112 117 C110.515 117.495 110.515 117.495 109 118 C109 119.98 109 121.96 109 124 C108.01 124 107.02 124 106 124 C105.67 125.65 105.34 127.3 105 129 C104.34 129 103.68 129 103 129 C103 130.32 103 131.64 103 133 C102.01 133 101.02 133 100 133 C100 134.98 100 136.96 100 139 C99.01 139.33 98.02 139.66 97 140 C97 141.65 97 143.3 97 145 C96.01 145.33 95.02 145.66 94 146 C94 147.65 94 149.3 94 151 C93.01 151.33 92.02 151.66 91 152 C91 152.99 91 153.98 91 155 C89.68 155 88.36 155 87 155 C87 156.98 87 158.96 87 161 C86.34 161.33 85.68 161.66 85 162 C84.34227572 165.02934491 84.34227572 165.02934491 84 168 C83.01 168 82.02 168 81 168 C81 169.98 81 171.96 81 174 C80.01 174 79.02 174 78 174 C78 175.98 78 177.96 78 180 C77.01 180 76.02 180 75 180 C75 180.99 75 181.98 75 183 C74.01 183 73.02 183 72 183 C72 184.98 72 186.96 72 189 C71.01 189.33 70.02 189.66 69 190 C69 191.65 69 193.3 69 195 C67.68 195.33 66.36 195.66 65 196 C65 197.98 65 199.96 65 202 C64.01 202 63.02 202 62 202 C62 203.65 62 205.3 62 207 C61.01 207.33 60.02 207.66 59 208 C59 209.32 59 210.64 59 212 C58.01 212 57.02 212 56 212 C56 213.98 56 215.96 56 218 C55.01 218 54.02 218 53 218 C53 219.98 53 221.96 53 224 C52.01 224 51.02 224 50 224 C50 225.98 50 227.96 50 230 C49.01 230 48.02 230 47 230 C46.896875 230.53625 46.79375 231.0725 46.6875 231.625 C45.81907303 234.62502044 44.44379704 237.2379535 43 240 C42.01 240 41.02 240 40 240 C40 241.98 40 243.96 40 246 C39.01 246 38.02 246 37 246 C37 247.98 37 249.96 37 252 C36.01 252 35.02 252 34 252 C34 253.98 34 255.96 34 258 C33.01 258.33 32.02 258.66 31 259 C30.87625 259.7425 30.7525 260.485 30.625 261.25 C30.04513299 263.80141485 29.26291261 265.7267573 28 268 C27.01 268 26.02 268 25 268 C25 269.98 25 271.96 25 274 C24.01 274 23.02 274 22 274 C21.67 276.31 21.34 278.62 21 281 C20.01 281 19.02 281 18 281 C18 282.98 18 284.96 18 287 C17.01 287 16.02 287 15 287 C15 287.99 15 288.98 15 290 C14.01 290 13.02 290 12 290 C12 291.98 12 293.96 12 296 C11.01 296 10.02 296 9 296 C9 297.98 9 299.96 9 302 C8.01 302.33 7.02 302.66 6 303 C6 304.65 6 306.3 6 308 C5.01 308.33 4.02 308.66 3 309 C3 310.65 3 312.3 3 314 C2.01 314.33 1.02 314.66 0 315 C0 315.99 0 316.98 0 318 C-1.32 318 -2.64 318 -4 318 C-4 320.31 -4 322.62 -4 325 C-4.99 325 -5.98 325 -7 325 C-7 326.98 -7 328.96 -7 331 C-7.99 331 -8.98 331 -10 331 C-10 332.98 -10 334.96 -10 337 C-10.99 337 -11.98 337 -13 337 C-13 338.65 -13 340.3 -13 342 C-13.99 342.33 -14.98 342.66 -16 343 C-16.73323796 345.01508358 -16.73323796 345.01508358 -17 347 C-17.66 347 -18.32 347 -19 347 C-19 348.98 -19 350.96 -19 353 C-19.99 353 -20.98 353 -22 353 C-22 354.65 -22 356.3 -22 358 C-22.99 358.33 -23.98 358.66 -25 359 C-25.33 360.98 -25.66 362.96 -26 365 C-26.99 365 -27.98 365 -29 365 C-29 366.65 -29 368.3 -29 370 C-29.99 370.33 -30.98 370.66 -32 371 C-32 372.32 -32 373.64 -32 375 C-32.99 375 -33.98 375 -35 375 C-35 376.98 -35 378.96 -35 381 C-35.99 381 -36.98 381 -38 381 C-38 382.98 -38 384.96 -38 387 C-38.99 387 -39.98 387 -41 387 C-41 388.98 -41 390.96 -41 393 C-41.99 393 -42.98 393 -44 393 C-44.33 394.98 -44.66 396.96 -45 399 C-45.66 399 -46.32 399 -47 399 C-47.33 400.32 -47.66 401.64 -48 403 C-48.99 403 -49.98 403 -51 403 C-51 404.98 -51 406.96 -51 409 C-51.99 409 -52.98 409 -54 409 C-54 410.98 -54 412.96 -54 415 C-54.66 415.33 -55.32 415.66 -56 416 C-56.72693904 417.97888961 -57.39816251 419.97954558 -58 422 C-58.66 422 -59.32 422 -60 422 C-60.33 423.65 -60.66 425.3 -61 427 C-61.66 427 -62.32 427 -63 427 C-63 428.32 -63 429.64 -63 431 C-63.99 431 -64.98 431 -66 431 C-66 432.98 -66 434.96 -66 437 C-66.99 437 -67.98 437 -69 437 C-69.33 439.31 -69.66 441.62 -70 444 C-70.99 444 -71.98 444 -73 444 C-73.33 445.65 -73.66 447.3 -74 449 C-74.66 449 -75.32 449 -76 449 C-76 450.32 -76 451.64 -76 453 C-76.99 453 -77.98 453 -79 453 C-79 454.98 -79 456.96 -79 459 C-79.99 459 -80.98 459 -82 459 C-82 461.31 -82 463.62 -82 466 C-82.99 466 -83.98 466 -85 466 C-85 467.65 -85 469.3 -85 471 C-85.99 471.33 -86.98 471.66 -88 472 C-88.12375 472.7425 -88.2475 473.485 -88.375 474.25 C-88.95486701 476.80141485 -89.73708739 478.7267573 -91 481 C-91.99 481 -92.98 481 -94 481 C-94.33 483.31 -94.66 485.62 -95 488 C-95.99 488 -96.98 488 -98 488 C-98 489.98 -98 491.96 -98 494 C-98.99 494 -99.98 494 -101 494 C-101 495.98 -101 497.96 -101 500 C-101.99 500 -102.98 500 -104 500 C-104.12375 500.721875 -104.2475 501.44375 -104.375 502.1875 C-104.9904931 504.95721894 -105.88444374 507.3970354 -107 510 C-107.99 510 -108.98 510 -110 510 C-110 511.98 -110 513.96 -110 516 C-110.99 516 -111.98 516 -113 516 C-113 517.65 -113 519.3 -113 521 C-113.99 521.33 -114.98 521.66 -116 522 C-116.33 523.98 -116.66 525.96 -117 528 C-117.99 528 -118.98 528 -120 528 C-120 529.32 -120 530.64 -120 532 C-120.99 532 -121.98 532 -123 532 C-123 533.98 -123 535.96 -123 538 C-123.99 538 -124.98 538 -126 538 C-126 539.98 -126 541.96 -126 544 C-126.99 544 -127.98 544 -129 544 C-129 545.98 -129 547.96 -129 550 C-129.99 550 -130.98 550 -132 550 C-132 551.98 -132 553.96 -132 556 C-132.66 556.33 -133.32 556.66 -134 557 C-134.33 557.99 -134.66 558.98 -135 560 C-135.99 560 -136.98 560 -138 560 C-138 561.98 -138 563.96 -138 566 C-139.32 566 -140.64 566 -142 566 C-142 567.98 -142 569.96 -142 572 C-142.99 572 -143.98 572 -145 572 C-145 573.98 -145 575.96 -145 578 C-145.99 578.33 -146.98 578.66 -148 579 C-148 580.65 -148 582.3 -148 584 C-148.66 584.33 -149.32 584.66 -150 585 C-150.33 585.99 -150.66 586.98 -151 588 C-151.99 588 -152.98 588 -154 588 C-154 589.98 -154 591.96 -154 594 C-154.99 594 -155.98 594 -157 594 C-157 595.98 -157 597.96 -157 600 C-157.99 600.33 -158.98 600.66 -160 601 C-160.33 602.98 -160.66 604.96 -161 607 C-161.66 607 -162.32 607 -163 607 C-163.66 608.65 -164.32 610.3 -165 612 C-165.66 612 -166.32 612 -167 612 C-167 613.32 -167 614.64 -167 616 C-167.99 616 -168.98 616 -170 616 C-170 617.98 -170 619.96 -170 622 C-170.99 622.33 -171.98 622.66 -173 623 C-173 624.98 -173 626.96 -173 629 C-173.99 629 -174.98 629 -176 629 C-176 630.65 -176 632.3 -176 634 C-176.99 634.33 -177.98 634.66 -179 635 C-179.33 636.98 -179.66 638.96 -180 641 C-180.66 641 -181.32 641 -182 641 C-182.33 642.32 -182.66 643.64 -183 645 C-183.66 645 -184.32 645 -185 645 C-185 646.65 -185 648.3 -185 650 C-186.32 650.33 -187.64 650.66 -189 651 C-189 652.98 -189 654.96 -189 657 C-189.99 657 -190.98 657 -192 657 C-192 658.98 -192 660.96 -192 663 C-192.99 663 -193.98 663 -195 663 C-195 663.99 -195 664.98 -195 666 C-195.99 666 -196.98 666 -198 666 C-198 668.31 -198 670.62 -198 673 C-198.99 673 -199.98 673 -201 673 C-201 674.98 -201 676.96 -201 679 C-201.99 679 -202.98 679 -204 679 C-204 680.98 -204 682.96 -204 685 C-204.99 685 -205.98 685 -207 685 C-207.33 686.98 -207.66 688.96 -208 691 C-208.99 691 -209.98 691 -211 691 C-211 692.32 -211 693.64 -211 695 C-211.99 695 -212.98 695 -214 695 C-214 696.98 -214 698.96 -214 701 C-214.99 701 -215.98 701 -217 701 C-217 702.98 -217 704.96 -217 707 C-217.99 707 -218.98 707 -220 707 C-220 708.98 -220 710.96 -220 713 C-220.99 713 -221.98 713 -223 713 C-222.9071875 714.0828125 -222.9071875 714.0828125 -222.8125 715.1875 C-223.03894223 718.5841334 -223.93254708 720.31996843 -226 723 C-226.99 723 -227.98 723 -229 723 C-229 724.98 -229 726.96 -229 729 C-229.99 729 -230.98 729 -232 729 C-232.33 730.98 -232.66 732.96 -233 735 C-233.99 735 -234.98 735 -236 735 C-236 736.98 -236 738.96 -236 741 C-236.99 741.33 -237.98 741.66 -239 742 C-239.33 743.65 -239.66 745.3 -240 747 C-240.66 747 -241.32 747 -242 747 C-242 748.32 -242 749.64 -242 751 C-242.99 751 -243.98 751 -245 751 C-245 752.98 -245 754.96 -245 757 C-245.99 757 -246.98 757 -248 757 C-248 758.98 -248 760.96 -248 763 C-248.99 763.33 -249.98 763.66 -251 764 C-251.33 765.98 -251.66 767.96 -252 770 C-252.66 770 -253.32 770 -254 770 C-254.12375 770.804375 -254.2475 771.60875 -254.375 772.4375 C-254.684375 773.7059375 -254.684375 773.7059375 -255 775 C-255.66 775.33 -256.32 775.66 -257 776 C-257.33 776.99 -257.66 777.98 -258 779 C-258.99 779 -259.98 779 -261 779 C-261 781.31 -261 783.62 -261 786 C-261.99 786 -262.98 786 -264 786 C-264 787.98 -264 789.96 -264 792 C-264.99 792 -265.98 792 -267 792 C-267 793.65 -267 795.3 -267 797 C-267.99 797.33 -268.98 797.66 -270 798 C-270.103125 798.721875 -270.20625 799.44375 -270.3125 800.1875 C-271.06793947 803.27793421 -272.15531315 805.41743841 -274 808 C-274.66 808 -275.32 808 -276 808 C-276 809.65 -276 811.3 -276 813 C-277.32 813.33 -278.64 813.66 -280 814 C-280 815.98 -280 817.96 -280 820 C-280.99 820 -281.98 820 -283 820 C-283.185625 820.804375 -283.185625 820.804375 -283.375 821.625 C-284.12206016 824.4638286 -285.05303364 827.22223202 -286 830 C-286.99 830 -287.98 830 -289 830 C-289 831.98 -289 833.96 -289 836 C-289.99 836 -290.98 836 -292 836 C-292 837.98 -292 839.96 -292 842 C-292.99 842 -293.98 842 -295 842 C-295 843.98 -295 845.96 -295 848 C-295.99 848 -296.98 848 -298 848 C-298.103125 848.721875 -298.20625 849.44375 -298.3125 850.1875 C-299.07346409 853.30053492 -300.0909017 855.43005998 -302 858 C-302.99 858 -303.98 858 -305 858 C-305 859.98 -305 861.96 -305 864 C-305.99 864 -306.98 864 -308 864 C-308 865.98 -308 867.96 -308 870 C-308.99 870 -309.98 870 -311 870 C-311 871.98 -311 873.96 -311 876 C-311.66 876.33 -312.32 876.66 -313 877 C-314.98128683 879.93230451 -316.35389319 882.51102321 -317 886 C-317.99 886 -318.98 886 -320 886 C-320 887.98 -320 889.96 -320 892 C-320.99 892 -321.98 892 -323 892 C-323.33 893.98 -323.66 895.96 -324 898 C-324.99 898.33 -325.98 898.66 -327 899 C-327 900.98 -327 902.96 -327 905 C-327.99 905 -328.98 905 -330 905 C-330 905.99 -330 906.98 -330 908 C-330.99 908 -331.98 908 -333 908 C-333 909.98 -333 911.96 -333 914 C-333.99 914 -334.98 914 -336 914 C-336 915.65 -336 917.3 -336 919 C-338.97 919 -341.94 919 -345 919 C-345 917.35 -345 915.7 -345 914 C-345.99 914 -346.98 914 -348 914 C-348.33 912.02 -348.66 910.04 -349 908 C-349.99 908 -350.98 908 -352 908 C-352.12375 907.195625 -352.2475 906.39125 -352.375 905.5625 C-352.58125 904.716875 -352.7875 903.87125 -353 903 C-353.66 902.67 -354.32 902.34 -355 902 C-358 895.76923077 -358 895.76923077 -358 892 C-358.99 891.67 -359.98 891.34 -361 891 C-361 889.35 -361 887.7 -361 886 C-361.99 886 -362.98 886 -364 886 C-364 884.02 -364 882.04 -364 880 C-364.99 880 -365.98 880 -367 880 C-367 877.69 -367 875.38 -367 873 C-367.99 873 -368.98 873 -370 873 C-370 871.02 -370 869.04 -370 867 C-371.32 866.67 -372.64 866.34 -374 866 C-374 864.35 -374 862.7 -374 861 C-374.99 861 -375.98 861 -377 861 C-377 859.02 -377 857.04 -377 855 C-377.99 855 -378.98 855 -380 855 C-380 852.69 -380 850.38 -380 848 C-380.99 848 -381.98 848 -383 848 C-383 846.02 -383 844.04 -383 842 C-383.99 842 -384.98 842 -386 842 C-386.33 841.01 -386.66 840.02 -387 839 C-387.66 838.67 -388.32 838.34 -389 838 C-389.33333333 836.33333333 -389.66666667 834.66666667 -390 833 C-390.66 832.67 -391.32 832.34 -392 832 C-392 830.02 -392 828.04 -392 826 C-392.99 826 -393.98 826 -395 826 C-395.33 824.02 -395.66 822.04 -396 820 C-396.99 819.67 -397.98 819.34 -399 819 C-399 817.35 -399 815.7 -399 814 C-399.99 813.67 -400.98 813.34 -402 813 C-402 811.35 -402 809.7 -402 808 C-402.99 807.67 -403.98 807.34 -405 807 C-405 805.02 -405 803.04 -405 801 C-405.99 801 -406.98 801 -408 801 C-408 799.02 -408 797.04 -408 795 C-408.99 795 -409.98 795 -411 795 C-411 793.02 -411 791.04 -411 789 C-411.99 789 -412.98 789 -414 789 C-414 787.02 -414 785.04 -414 783 C-414.99 783 -415.98 783 -417 783 C-417.28875 782.030625 -417.5775 781.06125 -417.875 780.0625 C-418.64214682 776.89335797 -418.64214682 776.89335797 -421 776 C-421 774.68 -421 773.36 -421 772 C-421.66 772 -422.32 772 -423 772 C-423.33 770.35 -423.66 768.7 -424 767 C-424.99 766.67 -425.98 766.34 -427 766 C-427 764.02 -427 762.04 -427 760 C-427.99 760 -428.98 760 -430 760 C-430 758.02 -430 756.04 -430 754 C-430.99 754 -431.98 754 -433 754 C-433 752.02 -433 750.04 -433 748 C-433.99 748 -434.98 748 -436 748 C-436 746.02 -436 744.04 -436 742 C-436.99 742 -437.98 742 -439 742 C-439 739.69 -439 737.38 -439 735 C-440.32 735 -441.64 735 -443 735 C-443 733.02 -443 731.04 -443 729 C-443.99 729 -444.98 729 -446 729 C-446 727.02 -446 725.04 -446 723 C-446.99 723 -447.98 723 -449 723 C-449 721.02 -449 719.04 -449 717 C-449.99 717 -450.98 717 -452 717 C-452 714.69 -452 712.38 -452 710 C-452.99 710 -453.98 710 -455 710 C-455 709.01 -455 708.02 -455 707 C-455.99 706.67 -456.98 706.34 -458 706 C-458 704.35 -458 702.7 -458 701 C-458.99 700.67 -459.98 700.34 -461 700 C-461 698.35 -461 696.7 -461 695 C-461.99 695 -462.98 695 -464 695 C-464.33 692.69 -464.66 690.38 -465 688 C-465.99 688 -466.98 688 -468 688 C-468 686.02 -468 684.04 -468 682 C-468.99 682 -469.98 682 -471 682 C-471 680.02 -471 678.04 -471 676 C-471.99 676 -472.98 676 -474 676 C-474 674.02 -474 672.04 -474 670 C-474.99 670 -475.98 670 -477 670 C-477 667.69 -477 665.38 -477 663 C-477.99 663 -478.98 663 -480 663 C-480 661.02 -480 659.04 -480 657 C-480.99 657 -481.98 657 -483 657 C-483 655.68 -483 654.36 -483 653 C-483.99 652.67 -484.98 652.34 -486 652 C-487.16796875 650.2578125 -487.16796875 650.2578125 -488.1875 648.125 C-488.53167969 647.42632813 -488.87585938 646.72765625 -489.23046875 646.0078125 C-490 644 -490 644 -490 641 C-490.99 640.67 -491.98 640.34 -493 640 C-493 638.35 -493 636.7 -493 635 C-493.99 634.67 -494.98 634.34 -496 634 C-496 632.35 -496 630.7 -496 629 C-496.99 628.67 -497.98 628.34 -499 628 C-499 626.35 -499 624.7 -499 623 C-499.99 622.67 -500.98 622.34 -502 622 C-502 620.02 -502 618.04 -502 616 C-502.99 616 -503.98 616 -505 616 C-505 614.02 -505 612.04 -505 610 C-505.99 610 -506.98 610 -508 610 C-508 608.02 -508 606.04 -508 604 C-509.32 603.67 -510.64 603.34 -512 603 C-512 601.02 -512 599.04 -512 597 C-512.99 597 -513.98 597 -515 597 C-515 595.02 -515 593.04 -515 591 C-515.99 591 -516.98 591 -518 591 C-518 589.02 -518 587.04 -518 585 C-518.99 585 -519.98 585 -521 585 C-521.495 583.515 -521.495 583.515 -522 582 C-522.66 581.67 -523.32 581.34 -524 581 C-524 575.06 -524 569.12 -524 563 C-523.01 563 -522.02 563 -521 563 C-521 562.01 -521 561.02 -521 560 C-520.01 560 -519.02 560 -518 560 C-518 558.02 -518 556.04 -518 554 C-517.01 554 -516.02 554 -515 554 C-515 553.01 -515 552.02 -515 551 C-514.34 550.67 -513.68 550.34 -513 550 C-512.27306096 548.02111039 -511.60183749 546.02045442 -511 544 C-510.01 544 -509.02 544 -508 544 C-507.67 542.68 -507.34 541.36 -507 540 C-506.34 540 -505.68 540 -505 540 C-505 538.35 -505 536.7 -505 535 C-504.01 535 -503.02 535 -502 535 C-501.896875 534.46375 -501.79375 533.9275 -501.6875 533.375 C-500.81907303 530.37497956 -499.44379704 527.7620465 -498 525 C-497.34 525 -496.68 525 -496 525 C-495.87625 524.443125 -495.7525 523.88625 -495.625 523.3125 C-494.94023145 520.77885636 -494.00866237 518.42078968 -493 516 C-492.01 516 -491.02 516 -490 516 C-489.896875 515.071875 -489.79375 514.14375 -489.6875 513.1875 C-488.9937139 509.97085535 -488.65754784 508.83984081 -486 507 C-485.01 507 -484.02 507 -483 507 C-483 505.02 -483 503.04 -483 501 C-482.01 500.67 -481.02 500.34 -480 500 C-480 499.01 -480 498.02 -480 497 C-479.01 497 -478.02 497 -477 497 C-477 495.02 -477 493.04 -477 491 C-476.01 491 -475.02 491 -474 491 C-474 490.01 -474 489.02 -474 488 C-473.01 488 -472.02 488 -471 488 C-471 486.02 -471 484.04 -471 482 C-470.01 482 -469.02 482 -468 482 C-468 480.68 -468 479.36 -468 478 C-467.34 477.67 -466.68 477.34 -466 477 C-465.27840576 475.35636866 -464.60648579 473.68949614 -464 472 C-463.01 472 -462.02 472 -461 472 C-460.87625 471.2575 -460.7525 470.515 -460.625 469.75 C-460.04513299 467.19858515 -459.26291261 465.2732427 -458 463 C-457.01 463 -456.02 463 -455 463 C-455 461.02 -455 459.04 -455 457 C-454.34 456.67 -453.68 456.34 -453 456 C-452.67 455.01 -452.34 454.02 -452 453 C-451.01 453 -450.02 453 -449 453 C-449 451.02 -449 449.04 -449 447 C-448.01 447 -447.02 447 -446 447 C-446 446.01 -446 445.02 -446 444 C-445.01 444 -444.02 444 -443 444 C-443 442.35 -443 440.7 -443 439 C-441.68 438.67 -440.36 438.34 -439 438 C-439 436.68 -439 435.36 -439 434 C-438.01 434 -437.02 434 -436 434 C-436 432.02 -436 430.04 -436 428 C-435.01 428 -434.02 428 -433 428 C-433 426.02 -433 424.04 -433 422 C-432.01 422 -431.02 422 -430 422 C-430 421.01 -430 420.02 -430 419 C-429.01 419 -428.02 419 -427 419 C-427 417.02 -427 415.04 -427 413 C-424.36 412.67 -421.72 412.34 -419 412 C-418.896875 412.639375 -418.79375 413.27875 -418.6875 413.9375 C-418.3471875 414.9584375 -418.3471875 414.9584375 -418 416 C-417.01 416.33 -416.02 416.66 -415 417 C-413.03638798 420.92722404 -411.65802821 424.6570138 -411 429 C-410.34 429 -409.68 429 -409 429 C-408.67 430.98 -408.34 432.96 -408 435 C-407.01 435 -406.02 435 -405 435 C-405 436.98 -405 438.96 -405 441 C-404.01 441 -403.02 441 -402 441 C-402 442.98 -402 444.96 -402 447 C-401.01 447 -400.02 447 -399 447 C-399 448.98 -399 450.96 -399 453 C-398.01 453 -397.02 453 -396 453 C-396 455.31 -396 457.62 -396 460 C-395.01 460 -394.02 460 -393 460 C-392.67 461.98 -392.34 463.96 -392 466 C-391.01 466 -390.02 466 -389 466 C-389 467.98 -389 469.96 -389 472 C-388.01 472 -387.02 472 -386 472 C-386 473.98 -386 475.96 -386 478 C-385.01 478.33 -384.02 478.66 -383 479 C-383 480.98 -383 482.96 -383 485 C-382.01 485 -381.02 485 -380 485 C-380 486.98 -380 488.96 -380 491 C-379.01 491 -378.02 491 -377 491 C-377 492.98 -377 494.96 -377 497 C-376.01 497 -375.02 497 -374 497 C-374 498.98 -374 500.96 -374 503 C-373.01 503 -372.02 503 -371 503 C-370.67 505.31 -370.34 507.62 -370 510 C-369.01 510 -368.02 510 -367 510 C-366.18082358 511.72601379 -365.36993984 513.4559647 -364.5625 515.1875 C-364.11003906 516.15042969 -363.65757812 517.11335937 -363.19140625 518.10546875 C-362.09618578 520.76631586 -361.45045204 523.16784755 -361 526 C-360.01 526.33 -359.02 526.66 -358 527 C-358 531.62 -358 536.24 -358 541 C-358.99 541 -359.98 541 -361 541 C-361 541.99 -361 542.98 -361 544 C-361.99 544 -362.98 544 -364 544 C-364.33 545.98 -364.66 547.96 -365 550 C-365.66 550 -366.32 550 -367 550 C-367.1546875 550.8971875 -367.1546875 550.8971875 -367.3125 551.8125 C-368.10503854 554.33421352 -368.91591409 555.39685699 -371 557 C-371.99 557 -372.98 557 -374 557 C-374 558.98 -374 560.96 -374 563 C-374.99 563 -375.98 563 -377 563 C-377 563.99 -377 564.98 -377 566 C-377.99 566 -378.98 566 -380 566 C-380 567.98 -380 569.96 -380 572 C-379.01 572.33 -378.02 572.66 -377 573 C-377 573.99 -377 574.98 -377 576 C-376.01 576 -375.02 576 -374 576 C-374 577.98 -374 579.96 -374 582 C-373.01 582 -372.02 582 -371 582 C-368.8125 583.875 -368.8125 583.875 -367 586 C-367 586.66 -367 587.32 -367 588 C-366.01 588.33 -365.02 588.66 -364 589 C-364 590.65 -364 592.3 -364 594 C-363.01 594 -362.02 594 -361 594 C-361 595.32 -361 596.64 -361 598 C-360.01 598 -359.02 598 -358 598 C-358 598.99 -358 599.98 -358 601 C-357.01 601 -356.02 601 -355 601 C-355 602.98 -355 604.96 -355 607 C-354.01 607 -353.02 607 -352 607 C-352 607.99 -352 608.98 -352 610 C-351.01 610 -350.02 610 -349 610 C-349 610.99 -349 611.98 -349 613 C-348.01 613.33 -347.02 613.66 -346 614 C-345.67 615.65 -345.34 617.3 -345 619 C-344.01 619.33 -343.02 619.66 -342 620 C-342 620.99 -342 621.98 -342 623 C-341.01 623 -340.02 623 -339 623 C-339 623.99 -339 624.98 -339 626 C-338.01 626 -337.02 626 -336 626 C-336 627.98 -336 629.96 -336 632 C-335.01 632 -334.02 632 -333 632 C-333 632.99 -333 633.98 -333 635 C-332.01 635 -331.02 635 -330 635 C-330 635.99 -330 636.98 -330 638 C-329.01 638 -328.02 638 -327 638 C-327 640.31 -327 642.62 -327 645 C-325.68 645 -324.36 645 -323 645 C-323 645.99 -323 646.98 -323 648 C-322.01 648 -321.02 648 -320 648 C-320 648.99 -320 649.98 -320 651 C-319.01 651.33 -318.02 651.66 -317 652 C-317 652.66 -317 653.32 -317 654 C-316.01 654 -315.02 654 -314 654 C-314 652.02 -314 650.04 -314 648 C-313.01 648 -312.02 648 -311 648 C-310.67 646.02 -310.34 644.04 -310 642 C-309.34 642 -308.68 642 -308 642 C-307.896875 641.278125 -307.79375 640.55625 -307.6875 639.8125 C-306.92653591 636.69946508 -305.9090983 634.56994002 -304 632 C-303.01 632 -302.02 632 -301 632 C-301 630.02 -301 628.04 -301 626 C-300.01 626 -299.02 626 -298 626 C-298 624.02 -298 622.04 -298 620 C-297.01 620 -296.02 620 -295 620 C-295 618.02 -295 616.04 -295 614 C-294.01 613.67 -293.02 613.34 -292 613 C-291.87625 612.2575 -291.7525 611.515 -291.625 610.75 C-291.04513299 608.19858515 -290.26291261 606.2732427 -289 604 C-288.01 604 -287.02 604 -286 604 C-286 602.02 -286 600.04 -286 598 C-285.01 598 -284.02 598 -283 598 C-283 596.02 -283 594.04 -283 592 C-282.01 591.67 -281.02 591.34 -280 591 C-279.67 589.02 -279.34 587.04 -279 585 C-278.01 585 -277.02 585 -276 585 C-276 583.02 -276 581.04 -276 579 C-275.01 579 -274.02 579 -273 579 C-272.67 577.02 -272.34 575.04 -272 573 C-271.34 573 -270.68 573 -270 573 C-270 571.68 -270 570.36 -270 569 C-269.01 569 -268.02 569 -267 569 C-267 567.02 -267 565.04 -267 563 C-266.01 563 -265.02 563 -264 563 C-264 561.02 -264 559.04 -264 557 C-263.01 557 -262.02 557 -261 557 C-261 555.02 -261 553.04 -261 551 C-260.01 551 -259.02 551 -258 551 C-257.67 549.02 -257.34 547.04 -257 545 C-256.01 544.67 -255.02 544.34 -254 544 C-254 543.01 -254 542.02 -254 541 C-253.01 541 -252.02 541 -251 541 C-251 539.02 -251 537.04 -251 535 C-250.01 535 -249.02 535 -248 535 C-248 533.02 -248 531.04 -248 529 C-247.01 529 -246.02 529 -245 529 C-245 527.02 -245 525.04 -245 523 C-244.01 522.67 -243.02 522.34 -242 522 C-242 520.35 -242 518.7 -242 517 C-241.01 516.67 -240.02 516.34 -239 516 C-238.67 514.02 -238.34 512.04 -238 510 C-237.34 510 -236.68 510 -236 510 C-236 509.01 -236 508.02 -236 507 C-234.68 507 -233.36 507 -232 507 C-232 504.69 -232 502.38 -232 500 C-231.01 500 -230.02 500 -229 500 C-229 498.02 -229 496.04 -229 494 C-228.01 494 -227.02 494 -226 494 C-226 492.02 -226 490.04 -226 488 C-225.01 488 -224.02 488 -223 488 C-223 486.02 -223 484.04 -223 482 C-222.01 482 -221.02 482 -220 482 C-220 480.68 -220 479.36 -220 478 C-219.34 477.67 -218.68 477.34 -218 477 C-217.34444881 474.47266765 -217.34444881 474.47266765 -217 472 C-216.01 472 -215.02 472 -214 472 C-214 470.02 -214 468.04 -214 466 C-213.01 466 -212.02 466 -211 466 C-210.67 464.02 -210.34 462.04 -210 460 C-209.01 460 -208.02 460 -207 460 C-207 458.02 -207 456.04 -207 454 C-206.01 453.67 -205.02 453.34 -204 453 C-204 451.35 -204 449.7 -204 448 C-203.01 447.67 -202.02 447.34 -201 447 C-201 446.01 -201 445.02 -201 444 C-200.01 444 -199.02 444 -198 444 C-198 442.02 -198 440.04 -198 438 C-197.01 438 -196.02 438 -195 438 C-195 436.02 -195 434.04 -195 432 C-194.01 431.67 -193.02 431.34 -192 431 C-192 429.35 -192 427.7 -192 426 C-191.01 425.67 -190.02 425.34 -189 425 C-188.67 423.02 -188.34 421.04 -188 419 C-187.01 419 -186.02 419 -185 419 C-185 417.35 -185 415.7 -185 414 C-184.01 413.67 -183.02 413.34 -182 413 C-182 411.68 -182 410.36 -182 409 C-181.01 409 -180.02 409 -179 409 C-179 407.02 -179 405.04 -179 403 C-178.01 403 -177.02 403 -176 403 C-176 401.02 -176 399.04 -176 397 C-175.01 397 -174.02 397 -173 397 C-173 395.02 -173 393.04 -173 391 C-172.01 391 -171.02 391 -170 391 C-170.0928125 389.9171875 -170.0928125 389.9171875 -170.1875 388.8125 C-169.86628679 383.99430192 -167.27993583 381.27993583 -164 378 C-163.67 377.01 -163.34 376.02 -163 375 C-162.01 375 -161.02 375 -160 375 C-160 373.02 -160 371.04 -160 369 C-159.01 369 -158.02 369 -157 369 C-157 366.69 -157 364.38 -157 362 C-156.01 362 -155.02 362 -154 362 C-154 360.35 -154 358.7 -154 357 C-153.01 356.67 -152.02 356.34 -151 356 C-151 354.35 -151 352.7 -151 351 C-150.01 350.67 -149.02 350.34 -148 350 C-148 349.01 -148 348.02 -148 347 C-147.01 347 -146.02 347 -145 347 C-145.061875 346.05125 -145.12375 345.1025 -145.1875 344.125 C-145.125625 343.09375 -145.06375 342.0625 -145 341 C-144.01 340.34 -143.02 339.68 -142 339 C-141.27034634 336.43717258 -141.27034634 336.43717258 -141 334 C-140.01 334 -139.02 334 -138 334 C-138 332.02 -138 330.04 -138 328 C-137.01 328 -136.02 328 -135 328 C-135 326.02 -135 324.04 -135 322 C-134.01 322 -133.02 322 -132 322 C-131.67 320.02 -131.34 318.04 -131 316 C-130.34 316 -129.68 316 -129 316 C-129 314.68 -129 313.36 -129 312 C-128.01 312 -127.02 312 -126 312 C-126 310.02 -126 308.04 -126 306 C-125.01 306 -124.02 306 -123 306 C-123 304.02 -123 302.04 -123 300 C-122.01 300 -121.02 300 -120 300 C-119.67 297.69 -119.34 295.38 -119 293 C-118.01 293 -117.02 293 -116 293 C-116 291.02 -116 289.04 -116 287 C-115.01 287 -114.02 287 -113 287 C-113 286.01 -113 285.02 -113 284 C-112.01 284 -111.02 284 -110 284 C-110 282.02 -110 280.04 -110 278 C-109.01 278 -108.02 278 -107 278 C-107 275.69 -107 273.38 -107 271 C-106.01 271 -105.02 271 -104 271 C-104 269.02 -104 267.04 -104 265 C-103.01 265 -102.02 265 -101 265 C-101 263.35 -101 261.7 -101 260 C-100.01 259.67 -99.02 259.34 -98 259 C-97.67 257.35 -97.34 255.7 -97 254 C-96.01 253.67 -95.02 253.34 -94 253 C-94 251.68 -94 250.36 -94 249 C-93.01 249 -92.02 249 -91 249 C-91 247.02 -91 245.04 -91 243 C-90.01 243 -89.02 243 -88 243 C-88 241.02 -88 239.04 -88 237 C-87.01 237 -86.02 237 -85 237 C-85 235.02 -85 233.04 -85 231 C-84.01 231 -83.02 231 -82 231 C-82 229.02 -82 227.04 -82 225 C-81.01 224.67 -80.02 224.34 -79 224 C-79 223.01 -79 222.02 -79 221 C-78.01 221 -77.02 221 -76 221 C-76 219.02 -76 217.04 -76 215 C-75.01 214.67 -74.02 214.34 -73 214 C-72.67 212.35 -72.34 210.7 -72 209 C-71.01 209 -70.02 209 -69 209 C-69 206.69 -69 204.38 -69 202 C-68.01 202 -67.02 202 -66 202 C-66 200.02 -66 198.04 -66 196 C-65.01 196 -64.02 196 -63 196 C-62.87625 195.2575 -62.7525 194.515 -62.625 193.75 C-62.04513299 191.19858515 -61.26291261 189.2732427 -60 187 C-59.01 187 -58.02 187 -57 187 C-57 185.02 -57 183.04 -57 181 C-56.01 180.67 -55.02 180.34 -54 180 C-54 178.35 -54 176.7 -54 175 C-53.01 174.67 -52.02 174.34 -51 174 C-50.67 172.02 -50.34 170.04 -50 168 C-49.01 168 -48.02 168 -47 168 C-47 166.02 -47 164.04 -47 162 C-46.01 162 -45.02 162 -44 162 C-44 160.68 -44 159.36 -44 158 C-43.34 157.67 -42.68 157.34 -42 157 C-41.34444881 154.47266765 -41.34444881 154.47266765 -41 152 C-40.01 152 -39.02 152 -38 152 C-38 150.02 -38 148.04 -38 146 C-37.01 146 -36.02 146 -35 146 C-35 144.02 -35 142.04 -35 140 C-34.01 140 -33.02 140 -32 140 C-32 137.69 -32 135.38 -32 133 C-36.95 133 -41.9 133 -47 133 C-47 132.01 -47 131.02 -47 130 C-50.96 130 -54.92 130 -59 130 C-59.33 129.01 -59.66 128.02 -60 127 C-60.99 127 -61.98 127 -63 127 C-63 124.03 -63 121.06 -63 118 C-62.01 118 -61.02 118 -60 118 C-60 115.69 -60 113.38 -60 111 C-59.01 111 -58.02 111 -57 111 C-57 109.02 -57 107.04 -57 105 C-56.01 105 -55.02 105 -54 105 C-54 103.02 -54 101.04 -54 99 C-53.01 99 -52.02 99 -51 99 C-51 97.35 -51 95.7 -51 94 C-49.68 93.67 -48.36 93.34 -47 93 C-47 90.69 -47 88.38 -47 86 C-46.01 86 -45.02 86 -44 86 C-44 84.02 -44 82.04 -44 80 C-43.01 80 -42.02 80 -41 80 C-41 78.02 -41 76.04 -41 74 C-40.01 74 -39.02 74 -38 74 C-38 72.02 -38 70.04 -38 68 C-37.01 68 -36.02 68 -35 68 C-35 66.02 -35 64.04 -35 62 C-34.34 61.67 -33.68 61.34 -33 61 C-32.67 60.01 -32.34 59.02 -32 58 C-31.34 57.67 -30.68 57.34 -30 57 C-29.690625 55.845 -29.38125 54.69 -29.0625 53.5 C-28.711875 52.345 -28.36125 51.19 -28 50 C-26.515 49.505 -26.515 49.505 -25 49 C-25 48.01 -25 47.02 -25 46 C-24.01 46 -23.02 46 -22 46 C-22 43.69 -22 41.38 -22 39 C-21.01 39 -20.02 39 -19 39 C-19 37.02 -19 35.04 -19 33 C-18.01 33 -17.02 33 -16 33 C-16 31.02 -16 29.04 -16 27 C-15.01 27 -14.02 27 -13 27 C-13 25.02 -13 23.04 -13 21 C-12.01 20.67 -11.02 20.34 -10 20 C-10 18.35 -10 16.7 -10 15 C-8.515 14.505 -8.515 14.505 -7 14 C-7 12.35 -7 10.7 -7 9 C-5.68 8.67 -4.36 8.34 -3 8 C-3 6.02 -3 4.04 -3 2 C-2.01 2 -1.02 2 0 2 C0 1.34 0 0.68 0 0 Z " fill="#4E4F4F" transform="translate(821,0)"/>
</g>
</svg>